<svg width="145" height="147" viewBox="0 0 145 147" fill="none" xmlns="http://www.w3.org/2000/svg">
<rect width="145" height="147" rx="23" fill="#1B1E76"/>
<path d="M79.624 30H62.1358C53.2156 30.0498 46 37.2956 46 46.2024V48.5671C49.6578 43.233 55.6711 40.0636 62.1358 40.0636H79.624C92.8523 40.0636 104.078 50.0767 104.729 62.4048C105.08 68.9462 102.774 75.186 98.3145 79.9155C94.2055 84.243 88.8942 86.809 83.031 87.2622C80.1249 91.086 78.521 95.6654 78.521 100.396V101.049C78.822 99.2387 80.1249 97.8294 81.8287 97.3258C90.8984 97.1743 99.317 93.5013 105.58 86.8595C111.995 80.1168 115.202 71.2106 114.751 61.9011C113.799 44.34 98.0644 30 79.624 30Z" fill="white"/>
<path d="M83.148 87.539C80.2327 91.3624 78.6237 95.9411 78.6237 100.671V101.324C78.5739 101.627 78.5739 102.029 78.5739 102.381C78.5739 111.638 71.2346 118.984 62.287 118.984C53.2889 118.984 46 111.638 46 102.683V48.8493C49.6693 43.5159 55.7017 40.3469 62.1867 40.3469C58.8181 40.3974 56.0535 43.1133 56.0535 46.4849V102.683C56.0535 106.104 58.8181 108.921 62.287 108.921C65.7047 108.921 68.5198 106.104 68.5198 102.683C68.1182 95.6395 73.2452 89.0484 80.4338 87.6394L81.3883 87.5889C81.9923 87.5889 82.595 87.5889 83.148 87.539Z" fill="#DBDBDB"/>
<path d="M83.148 87.2534C81.971 90.476 81.5435 93.9001 81.8643 97.3235C80.0451 97.8275 78.654 99.2376 78.3325 101.049V100.395C78.3325 95.662 80.0451 91.0797 83.148 87.2534Z" fill="#7C7C7C"/>
<path d="M61.8223 40.3469C55.4833 40.3469 49.5867 43.4321 46 48.6245C49.0482 46.5581 52.4959 45.148 56.1217 44.4854C56.9068 42.1056 59.1731 40.3865 61.8223 40.3469Z" fill="#7C7C7C"/>
</svg>
