<svg width="245" height="67" viewBox="0 0 245 67" fill="none" xmlns="http://www.w3.org/2000/svg">
<rect y="0.286865" width="245" height="66.0694" rx="5" fill="white"/>
<mask id="mask0" mask-type="alpha" maskUnits="userSpaceOnUse" x="0" y="0" width="245" height="67">
<rect y="0.286865" width="245" height="66.0694" rx="5" fill="white"/>
</mask>
<g mask="url(#mask0)">
<path fill-rule="evenodd" clip-rule="evenodd" d="M131.78 72.7891C131.78 72.7891 182.447 72.304 216.766 44.9535C251.084 17.603 252.304 -23.2639 252.304 -23.2639L348.4 4.84601C348.4 4.84601 345.344 53.5735 334.054 69.6855C322.764 85.7975 286.368 93.3711 286.368 93.3711L131.78 72.7891Z" fill="#09B1D9"/>
<path fill-rule="evenodd" clip-rule="evenodd" d="M120.531 105.624C120.531 105.624 170.87 99.8314 202.149 69.0337C233.428 38.2359 230.382 -2.53499 230.382 -2.53499L328.881 15.3489C328.881 15.3489 330.922 64.1297 321.373 81.3368C311.824 98.5439 276.417 109.891 276.417 109.891L120.531 105.624Z" fill="#01114C"/>
</g>
<path d="M95.472 40H97.36V35.36H103.296V40H105.184V28.8H103.296V33.664H97.36V28.8H95.472V40ZM107.856 29.056C107.856 29.696 108.32 30.16 108.928 30.16C109.536 30.16 110 29.696 110 29.056C110 28.4 109.536 27.936 108.928 27.936C108.32 27.936 107.856 28.4 107.856 29.056ZM108.016 40H109.84V31.488H108.016V40ZM112.563 40H114.403V35.552C114.547 34.096 115.635 33.088 117.347 33.184V31.424C116.003 31.424 114.979 32.032 114.403 33.184V31.488H112.563V40ZM118.06 35.76C118.06 38.32 119.788 40.064 122.412 40.064C123.884 40.064 125.1 39.536 125.932 38.624L124.956 37.584C124.332 38.224 123.484 38.576 122.556 38.576C121.212 38.576 120.204 37.76 119.916 36.448H126.348C126.572 33.376 125.356 31.424 122.364 31.424C119.836 31.44 118.06 33.184 118.06 35.76ZM119.884 35.104C120.092 33.744 121.036 32.896 122.38 32.896C123.772 32.896 124.684 33.728 124.748 35.104H119.884ZM132.279 35.36C132.279 38.288 134.135 40.08 137.159 40.08C140.183 40.08 142.023 38.288 142.023 35.36V28.8H140.135V35.36C140.135 37.264 138.999 38.384 137.175 38.384C135.335 38.384 134.167 37.248 134.167 35.36V28.8H132.279V35.36ZM143.586 38.88C144.434 39.648 145.762 40.064 147.01 40.064C148.722 40.064 150.274 39.28 150.274 37.536C150.29 34.448 145.762 35.296 145.762 33.728C145.762 33.12 146.29 32.88 147.01 32.88C147.762 32.88 148.706 33.168 149.458 33.632L150.13 32.272C149.362 31.728 148.226 31.408 147.154 31.408C145.522 31.408 144.018 32.144 144.018 33.872C144.002 36.944 148.482 35.968 148.482 37.712C148.482 38.352 147.874 38.624 147.09 38.624C146.162 38.624 144.978 38.224 144.242 37.568L143.586 38.88Z" fill="#0025B4"/>
</svg>
