<svg width="50" height="50" viewBox="0 0 50 50" fill="none" xmlns="http://www.w3.org/2000/svg">
<rect width="50" height="50" rx="19" fill="#09B1D9"/>
<path d="M35.1186 23.4116C34.7275 23.4116 34.3372 23.45 33.954 23.5264C33.665 22.1053 32.7306 20.8932 31.4187 20.237C30.1071 19.5809 28.5624 19.5534 27.2273 20.1622C26.0191 16.8834 22.3416 15.1905 19.0135 16.3809C15.6854 17.5712 13.967 21.1943 15.1753 24.4728C12.2599 24.5636 9.95701 26.9409 10.0006 29.8141C10.0445 32.6875 12.4189 34.9954 15.3358 35H35.1186C38.3666 35 41 32.4059 41 29.2058C41 26.0058 38.3666 23.4116 35.1186 23.4116Z" fill="white"/>
</svg>
