<svg width="31" height="30" viewBox="0 0 31 30" fill="none" xmlns="http://www.w3.org/2000/svg">
<rect width="31" height="30" rx="5" fill="#1B1E76"/>
<path d="M18.1212 7H14.4174C12.5282 7.01001 11 8.46504 11 10.2536V10.7285C11.7747 9.65736 13.0483 9.0209 14.4174 9.0209H18.1212C20.9229 9.0209 23.3003 11.0317 23.4382 13.5073C23.5125 14.8209 23.0242 16.0739 22.0797 17.0237C21.2094 17.8927 20.0846 18.408 18.8428 18.499C18.2273 19.2669 17.8876 20.1864 17.8876 21.1363V21.2676C17.9514 20.904 18.2273 20.621 18.5882 20.5199C20.509 20.4895 22.292 19.7519 23.6186 18.4181C24.977 17.0641 25.6563 15.2756 25.5607 13.4062C25.3591 9.87965 22.0267 7 18.1212 7Z" fill="white"/>
<path d="M18.8676 18.5547C18.2501 19.3224 17.9094 20.2419 17.9094 21.1916V21.3229C17.8988 21.3836 17.8988 21.4645 17.8988 21.5352C17.8988 23.3941 16.3444 24.8692 14.4494 24.8692C12.5437 24.8692 11 23.3941 11 21.5957V10.7853C11.7771 9.71425 13.0547 9.07788 14.4282 9.07788C13.7147 9.08802 13.1292 9.6334 13.1292 10.3105V21.5957C13.1292 22.2828 13.7147 22.8485 14.4494 22.8485C15.1733 22.8485 15.7695 22.2828 15.7695 21.5957C15.6844 20.1813 16.7703 18.8578 18.2927 18.5748L18.4949 18.5647C18.6228 18.5647 18.7505 18.5647 18.8676 18.5547Z" fill="#DBDBDB"/>
<path d="M18.8676 18.4973C18.6183 19.1445 18.5278 19.8321 18.5957 20.5195C18.2104 20.6207 17.9158 20.9039 17.8477 21.2677V21.1363C17.8477 20.1859 18.2104 19.2657 18.8676 18.4973Z" fill="#7C7C7C"/>
<path d="M14.351 9.07788C13.0085 9.07788 11.7596 9.69743 11 10.7401C11.6456 10.3252 12.3758 10.042 13.1437 9.90894C13.31 9.43105 13.7899 9.08583 14.351 9.07788Z" fill="#7C7C7C"/>
</svg>
