<svg width="679" height="122" viewBox="0 0 679 122" fill="none" xmlns="http://www.w3.org/2000/svg">
<g clip-path="url(#clip0)">
<path d="M14.261 85.152C16.661 85.152 18.833 85.716 20.777 86.844C22.745 87.948 24.293 89.496 25.421 91.488C26.549 93.456 27.113 95.688 27.113 98.184C27.113 100.68 26.537 102.924 25.385 104.916C24.257 106.908 22.709 108.468 20.741 109.596C18.797 110.7 16.637 111.252 14.261 111.252C11.885 111.252 9.71302 110.7 7.74502 109.596C5.80102 108.468 4.25302 106.908 3.10102 104.916C1.97302 102.924 1.40902 100.68 1.40902 98.184C1.40902 95.688 1.97302 93.456 3.10102 91.488C4.25302 89.496 5.80102 87.948 7.74502 86.844C9.71302 85.716 11.885 85.152 14.261 85.152ZM14.261 90.876C12.245 90.876 10.637 91.536 9.43702 92.856C8.26102 94.152 7.67302 95.928 7.67302 98.184C7.67302 100.416 8.26102 102.192 9.43702 103.512C10.637 104.832 12.245 105.492 14.261 105.492C16.253 105.492 17.849 104.832 19.049 103.512C20.249 102.192 20.849 100.416 20.849 98.184C20.849 95.952 20.249 94.176 19.049 92.856C17.873 91.536 16.277 90.876 14.261 90.876ZM59.9473 90.912L54.7993 111H47.9233L44.2873 97.536L40.6153 111H33.7393L28.5913 90.912H34.7473L37.4113 105.384L41.1553 90.912H47.7073L51.5593 105.42L54.2233 90.912H59.9473ZM74.9207 90.696C77.2247 90.696 79.0487 91.464 80.3927 93C81.7607 94.536 82.4447 96.648 82.4447 99.336V111H76.2887V100.056C76.2887 98.712 75.9287 97.668 75.2087 96.924C74.5127 96.156 73.5767 95.772 72.4007 95.772C71.1527 95.772 70.1567 96.168 69.4127 96.96C68.6927 97.752 68.3327 98.88 68.3327 100.344V111H62.1767V90.912H68.3327V94.584C68.9087 93.384 69.7607 92.436 70.8887 91.74C72.0407 91.044 73.3847 90.696 74.9207 90.696ZM101.344 90.66C102.88 90.66 104.2 91.008 105.304 91.704C106.408 92.4 107.224 93.348 107.752 94.548V90.912H113.872V111H107.752V107.364C107.224 108.564 106.408 109.512 105.304 110.208C104.2 110.904 102.88 111.252 101.344 111.252C99.6879 111.252 98.1999 110.844 96.8799 110.028C95.5839 109.188 94.5519 107.988 93.7839 106.428C93.0399 104.868 92.6679 103.044 92.6679 100.956C92.6679 98.844 93.0399 97.02 93.7839 95.484C94.5519 93.924 95.5839 92.736 96.8799 91.92C98.1999 91.08 99.6879 90.66 101.344 90.66ZM103.324 96.06C102.004 96.06 100.936 96.492 100.12 97.356C99.3279 98.22 98.9319 99.42 98.9319 100.956C98.9319 102.492 99.3279 103.692 100.12 104.556C100.936 105.42 102.004 105.852 103.324 105.852C104.62 105.852 105.676 105.408 106.492 104.52C107.332 103.632 107.752 102.444 107.752 100.956C107.752 99.444 107.332 98.256 106.492 97.392C105.676 96.504 104.62 96.06 103.324 96.06ZM131.473 102.072V111H125.317V85.548H135.289C138.313 85.548 140.617 86.304 142.201 87.816C143.785 89.304 144.577 91.32 144.577 93.864C144.577 95.448 144.217 96.864 143.497 98.112C142.801 99.336 141.757 100.308 140.365 101.028C138.973 101.724 137.281 102.072 135.289 102.072H131.473ZM134.605 97.14C137.077 97.14 138.313 96.048 138.313 93.864C138.313 91.632 137.077 90.516 134.605 90.516H131.473V97.14H134.605ZM153.762 94.692C154.53 93.468 155.514 92.496 156.714 91.776C157.938 91.056 159.258 90.696 160.674 90.696V97.284H158.91C157.278 97.284 156.006 97.632 155.094 98.328C154.206 99.024 153.762 100.2 153.762 101.856V111H147.606V90.912H153.762V94.692ZM172.647 90.66C174.639 90.66 176.415 91.08 177.975 91.92C179.559 92.736 180.795 93.924 181.683 95.484C182.595 97.044 183.051 98.868 183.051 100.956C183.051 103.044 182.595 104.868 181.683 106.428C180.795 107.988 179.559 109.188 177.975 110.028C176.415 110.844 174.639 111.252 172.647 111.252C170.655 111.252 168.867 110.844 167.283 110.028C165.699 109.188 164.451 107.988 163.539 106.428C162.651 104.868 162.207 103.044 162.207 100.956C162.207 98.868 162.651 97.044 163.539 95.484C164.451 93.924 165.699 92.736 167.283 91.92C168.867 91.08 170.655 90.66 172.647 90.66ZM172.647 95.988C171.471 95.988 170.475 96.42 169.659 97.284C168.867 98.124 168.471 99.348 168.471 100.956C168.471 102.564 168.867 103.788 169.659 104.628C170.475 105.468 171.471 105.888 172.647 105.888C173.823 105.888 174.807 105.468 175.599 104.628C176.391 103.788 176.787 102.564 176.787 100.956C176.787 99.348 176.391 98.124 175.599 97.284C174.807 96.42 173.823 95.988 172.647 95.988ZM195.315 90.66C197.907 90.66 200.079 91.38 201.831 92.82C203.583 94.236 204.687 96.192 205.143 98.688H198.627C198.435 97.824 198.039 97.152 197.439 96.672C196.839 96.192 196.083 95.952 195.171 95.952C194.091 95.952 193.203 96.384 192.507 97.248C191.811 98.088 191.463 99.324 191.463 100.956C191.463 102.588 191.811 103.836 192.507 104.7C193.203 105.54 194.091 105.96 195.171 105.96C196.083 105.96 196.839 105.72 197.439 105.24C198.039 104.76 198.435 104.088 198.627 103.224H205.143C204.687 105.72 203.583 107.688 201.831 109.128C200.079 110.544 197.907 111.252 195.315 111.252C193.347 111.252 191.595 110.844 190.059 110.028C188.547 109.188 187.359 107.988 186.495 106.428C185.631 104.868 185.199 103.044 185.199 100.956C185.199 98.844 185.619 97.02 186.459 95.484C187.323 93.924 188.523 92.736 190.059 91.92C191.595 91.08 193.347 90.66 195.315 90.66ZM214.512 94.692C215.28 93.468 216.264 92.496 217.464 91.776C218.688 91.056 220.008 90.696 221.424 90.696V97.284H219.66C218.028 97.284 216.756 97.632 215.844 98.328C214.956 99.024 214.512 100.2 214.512 101.856V111H208.356V90.912H214.512V94.692ZM243.081 100.416C243.081 100.92 243.021 101.472 242.901 102.072H228.969C229.041 103.584 229.425 104.676 230.121 105.348C230.817 105.996 231.705 106.32 232.785 106.32C233.697 106.32 234.453 106.092 235.053 105.636C235.653 105.18 236.049 104.592 236.241 103.872H242.757C242.493 105.288 241.917 106.56 241.029 107.688C240.141 108.792 239.013 109.668 237.645 110.316C236.277 110.94 234.753 111.252 233.073 111.252C231.105 111.252 229.353 110.844 227.817 110.028C226.305 109.188 225.117 107.988 224.253 106.428C223.389 104.868 222.957 103.044 222.957 100.956C222.957 98.844 223.377 97.02 224.217 95.484C225.081 93.924 226.281 92.736 227.817 91.92C229.353 91.08 231.105 90.66 233.073 90.66C235.065 90.66 236.817 91.068 238.329 91.884C239.841 92.7 241.005 93.852 241.821 95.34C242.661 96.804 243.081 98.496 243.081 100.416ZM236.853 99.48C236.877 98.16 236.517 97.176 235.773 96.528C235.053 95.856 234.153 95.52 233.073 95.52C231.945 95.52 231.009 95.856 230.265 96.528C229.521 97.2 229.101 98.184 229.005 99.48H236.853ZM253.922 90.66C255.458 90.66 256.778 91.008 257.882 91.704C258.986 92.4 259.79 93.348 260.294 94.548V84.36H266.45V111H260.294V107.364C259.79 108.564 258.986 109.512 257.882 110.208C256.778 110.904 255.458 111.252 253.922 111.252C252.266 111.252 250.778 110.844 249.458 110.028C248.162 109.188 247.13 107.988 246.362 106.428C245.618 104.868 245.246 103.044 245.246 100.956C245.246 98.844 245.618 97.02 246.362 95.484C247.13 93.924 248.162 92.736 249.458 91.92C250.778 91.08 252.266 90.66 253.922 90.66ZM255.902 96.06C254.582 96.06 253.514 96.492 252.698 97.356C251.906 98.22 251.51 99.42 251.51 100.956C251.51 102.492 251.906 103.692 252.698 104.556C253.514 105.42 254.582 105.852 255.902 105.852C257.198 105.852 258.254 105.408 259.07 104.52C259.91 103.632 260.33 102.444 260.33 100.956C260.33 99.444 259.91 98.256 259.07 97.392C258.254 96.504 257.198 96.06 255.902 96.06ZM270.112 85.26C270.112 84.324 270.448 83.556 271.12 82.956C271.792 82.332 272.68 82.02 273.784 82.02C274.888 82.02 275.776 82.332 276.448 82.956C277.12 83.556 277.456 84.324 277.456 85.26C277.456 86.172 277.12 86.94 276.448 87.564C275.776 88.164 274.888 88.464 273.784 88.464C272.68 88.464 271.792 88.164 271.12 87.564C270.448 86.94 270.112 86.172 270.112 85.26ZM276.844 90.912V111H270.688V90.912H276.844ZM292.471 105.708V111H289.699C287.347 111 285.511 110.424 284.191 109.272C282.895 108.096 282.247 106.164 282.247 103.476V96.096H279.547V90.912H282.247V85.98H288.403V90.912H292.435V96.096H288.403V103.584C288.403 104.376 288.559 104.928 288.871 105.24C289.207 105.552 289.759 105.708 290.527 105.708H292.471ZM303.563 90.66C305.099 90.66 306.419 91.008 307.523 91.704C308.627 92.4 309.443 93.348 309.971 94.548V90.912H316.091V111H309.971V107.364C309.443 108.564 308.627 109.512 307.523 110.208C306.419 110.904 305.099 111.252 303.563 111.252C301.907 111.252 300.419 110.844 299.099 110.028C297.803 109.188 296.771 107.988 296.003 106.428C295.259 104.868 294.887 103.044 294.887 100.956C294.887 98.844 295.259 97.02 296.003 95.484C296.771 93.924 297.803 92.736 299.099 91.92C300.419 91.08 301.907 90.66 303.563 90.66ZM305.543 96.06C304.223 96.06 303.155 96.492 302.339 97.356C301.547 98.22 301.151 99.42 301.151 100.956C301.151 102.492 301.547 103.692 302.339 104.556C303.155 105.42 304.223 105.852 305.543 105.852C306.839 105.852 307.895 105.408 308.711 104.52C309.551 103.632 309.971 102.444 309.971 100.956C309.971 99.444 309.551 98.256 308.711 97.392C307.895 96.504 306.839 96.06 305.543 96.06ZM340.604 111L335.096 101.388H333.692V111H327.536V85.548H338.048C340.064 85.548 341.768 85.896 343.16 86.592C344.552 87.288 345.596 88.248 346.292 89.472C346.988 90.672 347.336 92.052 347.336 93.612C347.336 95.46 346.82 97.032 345.788 98.328C344.78 99.624 343.304 100.512 341.36 100.992L347.408 111H340.604ZM333.692 97.176H337.508C338.732 97.176 339.632 96.912 340.208 96.384C340.784 95.832 341.072 95.028 341.072 93.972C341.072 92.964 340.772 92.172 340.172 91.596C339.596 91.02 338.708 90.732 337.508 90.732H333.692V97.176ZM369.503 100.416C369.503 100.92 369.443 101.472 369.323 102.072H355.391C355.463 103.584 355.847 104.676 356.543 105.348C357.239 105.996 358.127 106.32 359.207 106.32C360.119 106.32 360.875 106.092 361.475 105.636C362.075 105.18 362.471 104.592 362.663 103.872H369.179C368.915 105.288 368.339 106.56 367.451 107.688C366.563 108.792 365.435 109.668 364.067 110.316C362.699 110.94 361.175 111.252 359.495 111.252C357.527 111.252 355.775 110.844 354.239 110.028C352.727 109.188 351.539 107.988 350.675 106.428C349.811 104.868 349.379 103.044 349.379 100.956C349.379 98.844 349.799 97.02 350.639 95.484C351.503 93.924 352.703 92.736 354.239 91.92C355.775 91.08 357.527 90.66 359.495 90.66C361.487 90.66 363.239 91.068 364.751 91.884C366.263 92.7 367.427 93.852 368.243 95.34C369.083 96.804 369.503 98.496 369.503 100.416ZM363.275 99.48C363.299 98.16 362.939 97.176 362.195 96.528C361.475 95.856 360.575 95.52 359.495 95.52C358.367 95.52 357.431 95.856 356.687 96.528C355.943 97.2 355.523 98.184 355.427 99.48H363.275ZM380.344 90.66C381.88 90.66 383.2 91.008 384.304 91.704C385.408 92.4 386.224 93.348 386.752 94.548V90.912H392.872V110.892C392.872 112.764 392.512 114.444 391.792 115.932C391.072 117.444 389.968 118.644 388.48 119.532C386.992 120.42 385.144 120.864 382.936 120.864C379.912 120.864 377.488 120.144 375.664 118.704C373.864 117.288 372.784 115.356 372.424 112.908H378.508C378.7 113.724 379.132 114.36 379.804 114.816C380.5 115.272 381.4 115.5 382.504 115.5C383.776 115.5 384.796 115.128 385.564 114.384C386.356 113.664 386.752 112.5 386.752 110.892V107.364C386.224 108.564 385.408 109.512 384.304 110.208C383.2 110.904 381.88 111.252 380.344 111.252C378.688 111.252 377.2 110.844 375.88 110.028C374.584 109.188 373.552 107.988 372.784 106.428C372.04 104.868 371.668 103.044 371.668 100.956C371.668 98.844 372.04 97.02 372.784 95.484C373.552 93.924 374.584 92.736 375.88 91.92C377.2 91.08 378.688 90.66 380.344 90.66ZM382.324 96.06C381.004 96.06 379.936 96.492 379.12 97.356C378.328 98.22 377.932 99.42 377.932 100.956C377.932 102.492 378.328 103.692 379.12 104.556C379.936 105.42 381.004 105.852 382.324 105.852C383.62 105.852 384.676 105.408 385.492 104.52C386.332 103.632 386.752 102.444 386.752 100.956C386.752 99.444 386.332 98.256 385.492 97.392C384.676 96.504 383.62 96.06 382.324 96.06ZM396.534 85.26C396.534 84.324 396.87 83.556 397.542 82.956C398.214 82.332 399.102 82.02 400.206 82.02C401.31 82.02 402.198 82.332 402.87 82.956C403.542 83.556 403.878 84.324 403.878 85.26C403.878 86.172 403.542 86.94 402.87 87.564C402.198 88.164 401.31 88.464 400.206 88.464C399.102 88.464 398.214 88.164 397.542 87.564C396.87 86.94 396.534 86.172 396.534 85.26ZM403.266 90.912V111H397.11V90.912H403.266ZM416.913 90.66C418.905 90.66 420.681 91.08 422.241 91.92C423.825 92.736 425.061 93.924 425.949 95.484C426.861 97.044 427.317 98.868 427.317 100.956C427.317 103.044 426.861 104.868 425.949 106.428C425.061 107.988 423.825 109.188 422.241 110.028C420.681 110.844 418.905 111.252 416.913 111.252C414.921 111.252 413.133 110.844 411.549 110.028C409.965 109.188 408.717 107.988 407.805 106.428C406.917 104.868 406.473 103.044 406.473 100.956C406.473 98.868 406.917 97.044 407.805 95.484C408.717 93.924 409.965 92.736 411.549 91.92C413.133 91.08 414.921 90.66 416.913 90.66ZM416.913 95.988C415.737 95.988 414.741 96.42 413.925 97.284C413.133 98.124 412.737 99.348 412.737 100.956C412.737 102.564 413.133 103.788 413.925 104.628C414.741 105.468 415.737 105.888 416.913 105.888C418.089 105.888 419.073 105.468 419.865 104.628C420.657 103.788 421.053 102.564 421.053 100.956C421.053 99.348 420.657 98.124 419.865 97.284C419.073 96.42 418.089 95.988 416.913 95.988ZM443.253 90.696C445.557 90.696 447.381 91.464 448.725 93C450.093 94.536 450.777 96.648 450.777 99.336V111H444.621V100.056C444.621 98.712 444.261 97.668 443.541 96.924C442.845 96.156 441.909 95.772 440.733 95.772C439.485 95.772 438.489 96.168 437.745 96.96C437.025 97.752 436.665 98.88 436.665 100.344V111H430.509V90.912H436.665V94.584C437.241 93.384 438.093 92.436 439.221 91.74C440.373 91.044 441.717 90.696 443.253 90.696ZM462.469 90.66C464.005 90.66 465.325 91.008 466.429 91.704C467.533 92.4 468.349 93.348 468.877 94.548V90.912H474.997V111H468.877V107.364C468.349 108.564 467.533 109.512 466.429 110.208C465.325 110.904 464.005 111.252 462.469 111.252C460.813 111.252 459.325 110.844 458.005 110.028C456.709 109.188 455.677 107.988 454.909 106.428C454.165 104.868 453.793 103.044 453.793 100.956C453.793 98.844 454.165 97.02 454.909 95.484C455.677 93.924 456.709 92.736 458.005 91.92C459.325 91.08 460.813 90.66 462.469 90.66ZM464.449 96.06C463.129 96.06 462.061 96.492 461.245 97.356C460.453 98.22 460.057 99.42 460.057 100.956C460.057 102.492 460.453 103.692 461.245 104.556C462.061 105.42 463.129 105.852 464.449 105.852C465.745 105.852 466.801 105.408 467.617 104.52C468.457 103.632 468.877 102.444 468.877 100.956C468.877 99.444 468.457 98.256 467.617 97.392C466.801 96.504 465.745 96.06 464.449 96.06ZM485.391 84.36V111H479.235V84.36H485.391ZM513.445 85.548V90.444H503.005V96.024H511.069V100.704H503.005V111H496.849V85.548H513.445ZM522.762 94.692C523.53 93.468 524.514 92.496 525.714 91.776C526.938 91.056 528.258 90.696 529.674 90.696V97.284H527.91C526.278 97.284 525.006 97.632 524.094 98.328C523.206 99.024 522.762 100.2 522.762 101.856V111H516.606V90.912H522.762V94.692ZM539.883 90.66C541.419 90.66 542.739 91.008 543.843 91.704C544.947 92.4 545.763 93.348 546.291 94.548V90.912H552.411V111H546.291V107.364C545.763 108.564 544.947 109.512 543.843 110.208C542.739 110.904 541.419 111.252 539.883 111.252C538.227 111.252 536.739 110.844 535.419 110.028C534.123 109.188 533.091 107.988 532.323 106.428C531.579 104.868 531.207 103.044 531.207 100.956C531.207 98.844 531.579 97.02 532.323 95.484C533.091 93.924 534.123 92.736 535.419 91.92C536.739 91.08 538.227 90.66 539.883 90.66ZM541.863 96.06C540.543 96.06 539.475 96.492 538.659 97.356C537.867 98.22 537.471 99.42 537.471 100.956C537.471 102.492 537.867 103.692 538.659 104.556C539.475 105.42 540.543 105.852 541.863 105.852C543.159 105.852 544.215 105.408 545.031 104.52C545.871 103.632 546.291 102.444 546.291 100.956C546.291 99.444 545.871 98.256 545.031 97.392C544.215 96.504 543.159 96.06 541.863 96.06ZM569.393 90.696C571.697 90.696 573.521 91.464 574.865 93C576.233 94.536 576.917 96.648 576.917 99.336V111H570.761V100.056C570.761 98.712 570.401 97.668 569.681 96.924C568.985 96.156 568.049 95.772 566.873 95.772C565.625 95.772 564.629 96.168 563.885 96.96C563.165 97.752 562.805 98.88 562.805 100.344V111H556.649V90.912H562.805V94.584C563.381 93.384 564.233 92.436 565.361 91.74C566.513 91.044 567.857 90.696 569.393 90.696ZM590.05 90.66C592.642 90.66 594.814 91.38 596.566 92.82C598.318 94.236 599.422 96.192 599.878 98.688H593.362C593.17 97.824 592.774 97.152 592.174 96.672C591.574 96.192 590.818 95.952 589.906 95.952C588.826 95.952 587.938 96.384 587.242 97.248C586.546 98.088 586.198 99.324 586.198 100.956C586.198 102.588 586.546 103.836 587.242 104.7C587.938 105.54 588.826 105.96 589.906 105.96C590.818 105.96 591.574 105.72 592.174 105.24C592.774 104.76 593.17 104.088 593.362 103.224H599.878C599.422 105.72 598.318 107.688 596.566 109.128C594.814 110.544 592.642 111.252 590.05 111.252C588.082 111.252 586.33 110.844 584.794 110.028C583.282 109.188 582.094 107.988 581.23 106.428C580.366 104.868 579.934 103.044 579.934 100.956C579.934 98.844 580.354 97.02 581.194 95.484C582.058 93.924 583.258 92.736 584.794 91.92C586.33 91.08 588.082 90.66 590.05 90.66ZM615.835 90.696C618.139 90.696 619.963 91.464 621.307 93C622.675 94.536 623.359 96.648 623.359 99.336V111H617.203V100.056C617.203 98.712 616.843 97.668 616.123 96.924C615.427 96.156 614.491 95.772 613.315 95.772C612.067 95.772 611.071 96.168 610.327 96.96C609.607 97.752 609.247 98.88 609.247 100.344V111H603.091V84.36H609.247V94.584C609.823 93.384 610.675 92.436 611.803 91.74C612.955 91.044 614.299 90.696 615.835 90.696ZM626.843 85.26C626.843 84.324 627.179 83.556 627.851 82.956C628.523 82.332 629.411 82.02 630.515 82.02C631.619 82.02 632.507 82.332 633.179 82.956C633.851 83.556 634.187 84.324 634.187 85.26C634.187 86.172 633.851 86.94 633.179 87.564C632.507 88.164 631.619 88.464 630.515 88.464C629.411 88.464 628.523 88.164 627.851 87.564C627.179 86.94 626.843 86.172 626.843 85.26ZM633.575 90.912V111H627.419V90.912H633.575ZM645.133 90.66C647.677 90.66 649.705 91.296 651.217 92.568C652.753 93.84 653.713 95.52 654.097 97.608H648.337C648.169 96.792 647.785 96.156 647.185 95.7C646.609 95.22 645.877 94.98 644.989 94.98C644.293 94.98 643.765 95.136 643.405 95.448C643.045 95.736 642.865 96.156 642.865 96.708C642.865 97.332 643.189 97.8 643.837 98.112C644.509 98.424 645.553 98.736 646.969 99.048C648.505 99.408 649.765 99.78 650.749 100.164C651.733 100.524 652.585 101.124 653.305 101.964C654.025 102.804 654.385 103.932 654.385 105.348C654.385 106.5 654.073 107.52 653.449 108.408C652.825 109.296 651.925 109.992 650.749 110.496C649.573 111 648.181 111.252 646.573 111.252C643.861 111.252 641.689 110.652 640.057 109.452C638.425 108.252 637.429 106.536 637.069 104.304H643.009C643.105 105.168 643.465 105.828 644.089 106.284C644.737 106.74 645.565 106.968 646.573 106.968C647.269 106.968 647.797 106.812 648.157 106.5C648.517 106.164 648.697 105.732 648.697 105.204C648.697 104.508 648.361 104.016 647.689 103.728C647.041 103.416 645.973 103.092 644.485 102.756C642.997 102.444 641.773 102.108 640.813 101.748C639.853 101.388 639.025 100.812 638.329 100.02C637.633 99.204 637.285 98.1 637.285 96.708C637.285 94.908 637.969 93.456 639.337 92.352C640.705 91.224 642.637 90.66 645.133 90.66ZM676.874 100.416C676.874 100.92 676.814 101.472 676.694 102.072H662.762C662.834 103.584 663.218 104.676 663.914 105.348C664.61 105.996 665.498 106.32 666.578 106.32C667.49 106.32 668.246 106.092 668.846 105.636C669.446 105.18 669.842 104.592 670.034 103.872H676.55C676.286 105.288 675.71 106.56 674.822 107.688C673.934 108.792 672.806 109.668 671.438 110.316C670.07 110.94 668.546 111.252 666.866 111.252C664.898 111.252 663.146 110.844 661.61 110.028C660.098 109.188 658.91 107.988 658.046 106.428C657.182 104.868 656.75 103.044 656.75 100.956C656.75 98.844 657.17 97.02 658.01 95.484C658.874 93.924 660.074 92.736 661.61 91.92C663.146 91.08 664.898 90.66 666.866 90.66C668.858 90.66 670.61 91.068 672.122 91.884C673.634 92.7 674.798 93.852 675.614 95.34C676.454 96.804 676.874 98.496 676.874 100.416ZM670.646 99.48C670.67 98.16 670.31 97.176 669.566 96.528C668.846 95.856 667.946 95.52 666.866 95.52C665.738 95.52 664.802 95.856 664.058 96.528C663.314 97.2 662.894 98.184 662.798 99.48H670.646Z" fill="#2F281E"/>
<rect x="313" y="0.5" width="53" height="52" rx="5" fill="#1B1E76"/>
<path d="M343.343 12.5H336.923C333.649 12.5172 331 15.0231 331 18.1035V18.9213C332.343 17.0766 334.55 15.9804 336.923 15.9804H343.343C348.2 15.9804 352.321 19.4434 352.56 23.707C352.688 25.9693 351.842 28.1273 350.205 29.763C348.696 31.2596 346.747 32.1471 344.594 32.3038C343.527 33.6263 342.939 35.21 342.939 36.8459V37.072C343.049 36.4458 343.527 35.9584 344.153 35.7842C347.482 35.7319 350.573 34.4616 352.872 32.1645C355.227 29.8326 356.404 26.7525 356.239 23.5328C355.889 17.4594 350.113 12.5 343.343 12.5Z" fill="white"/>
<path d="M344.637 32.3996C343.567 33.7218 342.976 35.3054 342.976 36.941V37.1671C342.958 37.2717 342.958 37.4109 342.958 37.5327C342.958 40.7342 340.264 43.2746 336.979 43.2746C333.676 43.2746 331 40.7342 331 37.637V19.0189C332.347 17.1744 334.562 16.0784 336.942 16.0784C335.706 16.0959 334.691 17.0352 334.691 18.2012V37.637C334.691 38.8203 335.706 39.7945 336.979 39.7945C338.234 39.7945 339.267 38.8203 339.267 37.637C339.12 35.2011 341.002 32.9216 343.641 32.4343L343.991 32.4168C344.213 32.4168 344.434 32.4168 344.637 32.3996Z" fill="#DBDBDB"/>
<path d="M344.637 32.3007C344.205 33.4153 344.048 34.5995 344.166 35.7834C343.498 35.9577 342.987 36.4454 342.869 37.072V36.8457C342.869 35.2088 343.498 33.6241 344.637 32.3007Z" fill="#7C7C7C"/>
<path d="M336.808 16.0784C334.481 16.0784 332.317 17.1454 331 18.9412C332.119 18.2266 333.385 17.7389 334.716 17.5097C335.004 16.6867 335.836 16.0921 336.808 16.0784Z" fill="#7C7C7C"/>
</g>
<defs>
<clipPath id="clip0">
<rect width="679" height="122" fill="white"/>
</clipPath>
</defs>
</svg>
