<svg width="145" height="22" viewBox="0 0 145 22" fill="none" xmlns="http://www.w3.org/2000/svg">
<path fill-rule="evenodd" clip-rule="evenodd" d="M115.176 4.28771C114.627 4.76257 113.902 5 113 5C112.098 5 111.373 4.76257 110.824 4.28771C110.275 3.81285 110 3.2216 110 2.51397C110 1.78771 110.275 1.18715 110.824 0.712291C111.373 0.23743 112.098 0 113 0C113.902 0 114.627 0.23743 115.176 0.712291C115.725 1.18715 116 1.78771 116 2.51397C116 3.2216 115.725 3.81285 115.176 4.28771ZM100.535 21.2236C99.7018 21.7412 98.7057 22 97.5467 22C96.2971 22 95.1788 21.6921 94.1918 21.0763C93.2049 20.4605 92.4261 19.5725 91.8557 18.4123C91.2852 17.2521 91 15.8956 91 14.3427C91 12.772 91.2852 11.411 91.8557 10.2597C92.4261 9.10843 93.2049 8.2249 94.1918 7.6091C95.1788 6.99331 96.2971 6.68541 97.5467 6.68541C98.7057 6.68541 99.7018 6.94422 100.535 7.46185C101.368 7.97947 101.975 8.68452 102.355 9.57697V2H107V21.8126H102.355V19.1084C101.975 20.0009 101.368 20.7059 100.535 21.2236ZM4.79439 15.3352V22H0V3H7.76636C10.1215 3 11.9159 3.55988 13.1495 4.67963C14.3832 5.79939 15 7.30882 15 9.20792C15 10.3904 14.7243 11.443 14.1729 12.3656C13.6215 13.2883 12.8037 14.0139 11.7196 14.5424C10.6355 15.071 9.31776 15.3352 7.76636 15.3352H4.79439ZM5 11H7.28947C9.09649 11 10 10.1757 10 8.52717C10 6.84239 9.09649 6 7.28947 6H5V11ZM21.7107 22V15.2447C21.7107 14.0213 22.0551 13.1525 22.7438 12.6383C23.4325 12.1241 24.4013 11.867 25.6501 11.867H27V7C25.9164 7 24.9109 7.26596 23.9835 7.79787C23.056 8.32979 22.2984 9.04787 21.7107 9.95213V7.15957H17V22H21.7107ZM40.1174 21.0953C38.9108 21.6984 37.5429 22 36.0138 22C34.4847 22 33.1123 21.6984 31.8964 21.0953C30.6805 20.4921 29.7271 19.6224 29.0363 18.486C28.3454 17.3497 28 16.021 28 14.5C28 12.979 28.3454 11.6503 29.0363 10.514C29.7271 9.37762 30.6805 8.50787 31.8964 7.90472C33.1123 7.30157 34.4847 7 36.0138 7C37.5429 7 38.9108 7.30157 40.1174 7.90472C41.3241 8.50787 42.2729 9.37762 42.9637 10.514C43.6546 11.6503 44 12.979 44 14.5C44 16.021 43.6546 17.3497 42.9637 18.486C42.2729 19.6224 41.3241 20.4921 40.1174 21.0953ZM36.013 18C35.1645 18 34.4502 17.703 33.8701 17.1091C33.29 16.5152 33 15.6497 33 14.5127C33 13.3758 33.29 12.5061 33.8701 11.9036C34.4502 11.3012 35.1645 11 36.013 11C36.8615 11 37.5714 11.3012 38.1429 11.9036C38.7143 12.5061 39 13.3758 39 14.5127C39 15.6497 38.7143 16.5152 38.1429 17.1091C37.5714 17.703 36.8615 18 36.013 18ZM58.509 20.4397C57.1913 21.4799 55.5578 22 53.6083 22C52.1282 22 50.815 21.6984 49.6688 21.0953C48.5226 20.4921 47.6245 19.6224 46.9747 18.486C46.3249 17.3497 46 16.021 46 14.5C46 12.9615 46.3204 11.6285 46.9612 10.5009C47.602 9.37325 48.5 8.50787 49.6552 7.90472C50.8105 7.30157 52.1282 7 53.6083 7C55.5578 7 57.1913 7.5201 58.509 8.56031C59.8267 9.60052 60.657 11.0297 61 12.8479H56.0993C55.9549 12.2185 55.657 11.729 55.2058 11.3794C54.7545 11.0297 54.1859 10.8549 53.5 10.8549C52.6877 10.8549 52.0199 11.1652 51.4964 11.7858C50.9729 12.4065 50.7112 13.3112 50.7112 14.5C50.7112 15.6888 50.9729 16.5935 51.4964 17.2142C52.0199 17.8348 52.6877 18.1451 53.5 18.1451C54.1859 18.1451 54.7545 17.9703 55.2058 17.6206C55.657 17.271 55.9549 16.7815 56.0993 16.1521H61C60.657 17.9703 59.8267 19.3995 58.509 20.4397ZM67.7107 22V15.2447C67.7107 14.0213 68.0551 13.1525 68.7438 12.6383C69.4325 12.1241 70.4013 11.867 71.6501 11.867H73V7C71.9164 7 70.9109 7.26596 69.9835 7.79787C69.056 8.32979 68.2984 9.04787 67.7107 9.95213V7.15957H63V22H67.7107ZM84.9481 21.3051C83.9284 21.7684 82.7925 22 81.5403 22C80.0733 22 78.7719 21.6984 77.636 21.0953C76.5 20.4921 75.61 19.6224 74.966 18.486C74.322 17.3497 74 16.021 74 14.5C74 12.9615 74.3175 11.6285 74.9526 10.5009C75.5877 9.37325 76.4776 8.50787 77.6225 7.90472C78.7674 7.30157 80.0733 7 81.5403 7C83.025 7 84.3309 7.2972 85.458 7.89161C86.585 8.48601 87.4571 9.3208 88.0742 10.396C88.6914 11.4712 89 12.708 89 14.1066C89 14.4738 88.9553 14.8759 88.8658 15.3129H78.4812C78.5349 16.4143 78.8211 17.2054 79.3399 17.6862C79.8587 18.167 80.5206 18.4073 81.3256 18.4073C82.0054 18.4073 82.5689 18.2413 83.0161 17.9091C83.4633 17.5769 83.7585 17.1486 83.9016 16.6241H88.7585C88.5617 17.6556 88.1324 18.5778 87.4705 19.3907C86.8086 20.2037 85.9678 20.8418 84.9481 21.3051ZM84.9991 13H79C79.0734 12.0182 79.3944 11.2727 79.9632 10.7636C80.5319 10.2545 81.2474 10 82.1096 10C82.9352 10 83.6278 10.25 84.1873 10.75C84.7469 11.25 85.0175 12 84.9991 13ZM99.4857 18C98.4381 18 97.5952 17.6912 96.9571 17.0735C96.319 16.4559 96 15.598 96 14.5C96 13.402 96.319 12.5441 96.9571 11.9265C97.5952 11.3088 98.4381 11 99.4857 11C100.514 11 101.357 11.3131 102.014 11.9393C102.671 12.5656 103 13.4191 103 14.5C103 15.5637 102.671 16.413 102.014 17.0478C101.357 17.6826 100.514 18 99.4857 18ZM115 7H110V22H115V7ZM127 17.9813V22H124.855C123.035 22 121.619 21.558 120.607 20.6741C119.595 19.7902 119.089 18.3276 119.089 16.2863V10.682H117V6.74532H119.089V3H123.852V6.74532H126.972V10.682H123.852V16.3683C123.852 16.9698 123.978 17.389 124.228 17.6259C124.479 17.8628 124.902 17.9813 125.496 17.9813H127ZM135.547 22C136.706 22 137.702 21.7465 138.535 21.2395C139.368 20.7325 139.984 20.042 140.382 19.1678V21.8164H145V7.18357H140.382V9.83217C139.984 8.95804 139.368 8.26748 138.535 7.76049C137.702 7.2535 136.706 7 135.547 7C134.297 7 133.179 7.30157 132.192 7.90472C131.205 8.50787 130.426 9.37325 129.856 10.5009C129.285 11.6285 129 12.9615 129 14.5C129 16.021 129.285 17.3497 129.856 18.486C130.426 19.6224 131.205 20.4921 132.192 21.0953C133.179 21.6984 134.297 22 135.547 22ZM133.957 17.0735C134.595 17.6912 135.438 18 136.486 18C137.514 18 138.357 17.6826 139.014 17.0478C139.671 16.413 140 15.5637 140 14.5C140 13.4191 139.671 12.5656 139.014 11.9393C138.357 11.3131 137.514 11 136.486 11C135.438 11 134.595 11.3088 133.957 11.9265C133.319 12.5441 133 13.402 133 14.5C133 15.598 133.319 16.4559 133.957 17.0735Z" fill="#1B1E76"/>
</svg>
