<svg width="245" height="67" viewBox="0 0 245 67" fill="none" xmlns="http://www.w3.org/2000/svg">
<rect y="0.286865" width="245" height="66.0694" rx="5" fill="#0025B4"/>
<mask id="mask0" mask-type="alpha" maskUnits="userSpaceOnUse" x="0" y="0" width="245" height="67">
<rect y="0.286865" width="245" height="66.0694" rx="5" fill="white"/>
</mask>
<g mask="url(#mask0)">
<path fill-rule="evenodd" clip-rule="evenodd" d="M131.78 72.7891C131.78 72.7891 182.447 72.304 216.766 44.9535C251.084 17.603 252.304 -23.2639 252.304 -23.2639L348.4 4.84601C348.4 4.84601 345.344 53.5735 334.054 69.6855C322.764 85.7975 286.368 93.3711 286.368 93.3711L131.78 72.7891Z" fill="#09B1D9"/>
<path fill-rule="evenodd" clip-rule="evenodd" d="M120.531 105.624C120.531 105.624 170.87 99.8314 202.149 69.0337C233.428 38.2359 230.382 -2.53499 230.382 -2.53499L328.881 15.3489C328.881 15.3489 330.922 64.1297 321.373 81.3368C311.824 98.5439 276.417 109.891 276.417 109.891L120.531 105.624Z" fill="#01114C"/>
</g>
<path d="M87.52 39.86C88.96 41.18 91.04 42.08 93.24 42.08C96.32 42.08 98.52 40.54 98.52 38.04C98.54 33 90.98 34.64 90.98 31.58C90.98 30.64 91.88 30.12 93.26 30.12C94.32 30.12 95.84 30.5 97.36 31.42L98.34 29.34C97.04 28.48 95.26 27.9 93.44 27.9C90.4 27.9 88.34 29.4 88.34 31.8C88.34 36.78 95.9 35.04 95.9 38.16C95.9 39.24 94.92 39.86 93.28 39.86C91.78 39.86 89.98 39.14 88.54 37.82L87.52 39.86ZM100.941 28.32C100.941 29.12 101.521 29.7 102.281 29.7C103.041 29.7 103.621 29.12 103.621 28.32C103.621 27.5 103.041 26.92 102.281 26.92C101.521 26.92 100.941 27.5 100.941 28.32ZM101.141 42H103.421V31.36H101.141V42ZM105.825 36.34C105.825 39.4 107.745 41.48 110.625 41.48C112.225 41.48 113.425 40.84 114.145 39.68V41.02C114.145 42.86 112.825 44.04 110.805 44.04C109.505 44.04 108.465 43.62 107.465 42.88L106.485 44.54C107.785 45.42 109.245 45.94 110.905 45.94C114.245 45.94 116.425 44.02 116.425 40.96V31.36H114.145V33.08C113.405 31.92 112.185 31.26 110.545 31.28C107.725 31.3 105.825 33.34 105.825 36.34ZM107.985 36.4C108.005 34.5 109.265 33.14 111.085 33.14C112.885 33.14 114.145 34.48 114.145 36.4C114.145 38.32 112.885 39.68 111.085 39.68C109.245 39.68 108.005 38.32 107.985 36.4ZM119.618 42H121.918V36.34C122.078 34.68 123.178 33.46 124.938 33.44C126.538 33.44 127.498 34.42 127.498 36.02V42H129.798V35.38C129.798 32.84 128.318 31.28 125.838 31.28C124.038 31.28 122.678 31.92 121.918 33.4V31.36H119.618V42ZM132.54 37.98C132.54 40.52 134 42.08 136.44 42.08C138.18 42.06 139.52 41.4 140.24 39.92V42H142.54V31.36H140.24V36.6C140.24 38.46 139.16 39.88 137.32 39.92C135.78 39.92 134.84 38.94 134.84 37.34V31.36H132.54V37.98ZM146.046 45.88H148.346V40.16C149.126 41.4 150.406 42.08 152.106 42.08C155.146 42.08 157.146 39.9 157.146 36.72C157.146 33.48 155.086 31.28 152.066 31.28C150.406 31.28 149.126 31.96 148.346 33.2V31.36H146.046V45.88ZM148.346 36.64C148.346 34.64 149.686 33.2 151.586 33.2C153.486 33.2 154.826 34.66 154.826 36.64C154.826 38.68 153.486 40.12 151.586 40.12C149.686 40.12 148.346 38.7 148.346 36.64Z" fill="white"/>
</svg>
