<svg width="162" height="21" viewBox="0 0 162 21" fill="none" xmlns="http://www.w3.org/2000/svg">
<path d="M26 5.8L29.696 17H32.304L34.608 9.016L36.864 17H39.472L43.184 5.8H40.592L38.256 14.248L35.888 5.8H33.408L31.072 14.248L28.72 5.8H26ZM42.6995 14.424C42.6995 15.992 43.8195 17.112 45.6595 17.112C46.8595 17.112 47.7875 16.712 48.3635 15.992V17H50.7795L50.7635 11.384C50.7475 9.448 49.4195 8.296 47.1155 8.296C45.6115 8.296 44.5075 8.648 43.2275 9.288L43.9955 10.984C44.8915 10.488 45.7875 10.232 46.5555 10.232C47.7395 10.232 48.3475 10.76 48.3475 11.672V11.832H45.9795C43.8675 11.848 42.6995 12.808 42.6995 14.424ZM45.0035 14.264C45.0035 13.576 45.4675 13.288 46.4115 13.288H48.3475V14.056C48.2035 14.792 47.3875 15.352 46.3475 15.352C45.5155 15.352 45.0035 14.92 45.0035 14.264ZM52.0868 10.472H53.2868V14.456C53.2868 16.232 54.4548 17.112 55.9908 17.112C56.7908 17.112 57.5908 16.888 58.2308 16.52L57.7188 14.712C57.2708 14.92 56.8868 15.032 56.5668 15.032C56.0388 15.048 55.7348 14.76 55.7348 14.04V10.488H58.0708V8.776H55.7348V6.408H53.2868V8.776H52.0868V10.472ZM58.9168 12.728C58.9168 15.336 60.6928 17.096 63.3008 17.096C65.0608 17.096 66.4048 16.392 67.1248 15.192L65.4288 14.04C64.9968 14.712 64.3088 15.048 63.4288 15.048C62.2288 15.048 61.3808 14.104 61.3808 12.712C61.3808 11.336 62.2288 10.408 63.4288 10.408C64.2768 10.392 64.9328 10.744 65.3968 11.32L67.0608 10.12C66.2928 8.968 64.9808 8.312 63.3328 8.312C60.6928 8.312 58.9168 10.088 58.9168 12.728ZM68.7484 17H71.2124V12.76C71.2124 11.496 71.9644 10.568 73.1964 10.552C74.2524 10.552 74.8924 11.224 74.8924 12.312V17H77.3564V11.592C77.3564 9.576 76.1244 8.296 74.1884 8.296C72.8444 8.312 71.8204 8.84 71.2124 9.912V5.128H68.7484V17ZM82.5086 10.472H83.7086V14.456C83.7086 16.232 84.8766 17.112 86.4126 17.112C87.2126 17.112 88.0126 16.888 88.6526 16.52L88.1406 14.712C87.6926 14.92 87.3086 15.032 86.9886 15.032C86.4606 15.048 86.1566 14.76 86.1566 14.04V10.488H88.4926V8.776H86.1566V6.408H83.7086V8.776H82.5086V10.472ZM90.2171 17H92.6811V12.76C92.6811 11.496 93.4331 10.568 94.6651 10.552C95.7211 10.552 96.3611 11.224 96.3611 12.312V17H98.8251V11.592C98.8251 9.576 97.5931 8.296 95.6571 8.296C94.3131 8.312 93.2891 8.84 92.6811 9.912V5.128H90.2171V17ZM100.198 12.728C100.198 15.336 101.942 17.096 104.694 17.096C106.246 17.096 107.51 16.536 108.374 15.576L107.078 14.264C106.486 14.856 105.718 15.176 104.902 15.176C103.798 15.176 102.966 14.536 102.678 13.448H108.854C109.062 10.312 107.654 8.312 104.63 8.312C102.006 8.312 100.198 10.072 100.198 12.728ZM102.63 11.992C102.822 10.856 103.558 10.12 104.646 10.12C105.782 10.12 106.518 10.856 106.55 11.992H102.63ZM113.156 5.8L117.556 17H120.164L124.612 5.8H122.004L118.932 14.248L115.876 5.8H113.156ZM125.635 5.944C125.635 6.744 126.179 7.32 126.963 7.32C127.747 7.32 128.291 6.744 128.291 5.944C128.291 5.144 127.747 4.568 126.963 4.568C126.179 4.568 125.635 5.144 125.635 5.944ZM125.731 17H128.195V8.392H125.731V17ZM129.823 12.664C129.823 15.32 131.439 17.096 133.887 17.096C135.071 17.096 135.999 16.616 136.607 15.736V17H139.055V5.128H136.607V9.656C135.983 8.776 135.039 8.296 133.823 8.296C131.423 8.296 129.823 10.04 129.823 12.664ZM132.287 12.728C132.303 11.336 133.183 10.344 134.463 10.344C135.727 10.344 136.607 11.32 136.607 12.728C136.607 14.136 135.727 15.112 134.463 15.112C133.167 15.112 132.303 14.136 132.287 12.728ZM140.776 12.728C140.776 15.336 142.52 17.096 145.272 17.096C146.824 17.096 148.088 16.536 148.952 15.576L147.656 14.264C147.064 14.856 146.296 15.176 145.48 15.176C144.376 15.176 143.544 14.536 143.256 13.448H149.432C149.64 10.312 148.232 8.312 145.208 8.312C142.584 8.312 140.776 10.072 140.776 12.728ZM143.208 11.992C143.4 10.856 144.136 10.12 145.224 10.12C146.36 10.12 147.096 10.856 147.128 11.992H143.208ZM150.323 12.696C150.323 15.32 152.179 17.096 154.947 17.096C157.699 17.096 159.555 15.32 159.555 12.696C159.555 10.056 157.699 8.312 154.947 8.312C152.179 8.312 150.323 10.056 150.323 12.696ZM152.803 12.728C152.803 11.32 153.667 10.36 154.947 10.36C156.211 10.36 157.091 11.32 157.091 12.728C157.091 14.136 156.211 15.096 154.947 15.096C153.667 15.096 152.803 14.136 152.803 12.728Z" fill="#0025B4"/>
<path d="M26 19.4H160.003V20.2H26V19.4Z" fill="#0025B4"/>
<path fill-rule="evenodd" clip-rule="evenodd" d="M15.8516 9.53032C16.591 9.96531 16.591 11.0347 15.8516 11.4697L2.1954 19.5027C1.44543 19.9439 0.5 19.4031 0.5 18.533V2.46697C0.5 1.59688 1.44543 1.05614 2.1954 1.49729L15.8516 9.53032Z" fill="#01114C"/>
</svg>
