<svg width="288" height="122" viewBox="0 0 288 122" fill="none" xmlns="http://www.w3.org/2000/svg">
<g clip-path="url(#clip0)">
<path d="M37.1243 85.548L31.0403 111H23.4083L19.3403 93.972L15.2363 111H7.6043L1.5203 85.548H8.2163L11.4923 103.98L15.9563 85.548H22.6883L27.1523 103.98L30.4643 85.548H37.1243ZM53.1004 90.696C55.4044 90.696 57.2284 91.464 58.5724 93C59.9404 94.536 60.6244 96.648 60.6244 99.336V111H54.4684V100.056C54.4684 98.712 54.1084 97.668 53.3884 96.924C52.6924 96.156 51.7564 95.772 50.5804 95.772C49.3324 95.772 48.3364 96.168 47.5924 96.96C46.8724 97.752 46.5124 98.88 46.5124 100.344V111H40.3564V84.36H46.5124V94.584C47.0884 93.384 47.9404 92.436 49.0684 91.74C50.2204 91.044 51.5644 90.696 53.1004 90.696ZM69.3285 90.912L74.1525 103.224L78.6525 90.912H85.4565L72.9285 120.576H66.1605L70.8765 110.244L62.4525 90.912H69.3285ZM100.864 102.072V111H94.708V85.548H104.68C107.704 85.548 110.008 86.304 111.592 87.816C113.176 89.304 113.968 91.32 113.968 93.864C113.968 95.448 113.608 96.864 112.888 98.112C112.192 99.336 111.148 100.308 109.756 101.028C108.364 101.724 106.672 102.072 104.68 102.072H100.864ZM103.996 97.14C106.468 97.14 107.704 96.048 107.704 93.864C107.704 91.632 106.468 90.516 103.996 90.516H100.864V97.14H103.996ZM123.153 94.692C123.921 93.468 124.905 92.496 126.105 91.776C127.329 91.056 128.649 90.696 130.065 90.696V97.284H128.301C126.669 97.284 125.397 97.632 124.485 98.328C123.597 99.024 123.153 100.2 123.153 101.856V111H116.997V90.912H123.153V94.692ZM142.038 90.66C144.03 90.66 145.806 91.08 147.366 91.92C148.95 92.736 150.186 93.924 151.074 95.484C151.986 97.044 152.442 98.868 152.442 100.956C152.442 103.044 151.986 104.868 151.074 106.428C150.186 107.988 148.95 109.188 147.366 110.028C145.806 110.844 144.03 111.252 142.038 111.252C140.046 111.252 138.258 110.844 136.674 110.028C135.09 109.188 133.842 107.988 132.93 106.428C132.042 104.868 131.598 103.044 131.598 100.956C131.598 98.868 132.042 97.044 132.93 95.484C133.842 93.924 135.09 92.736 136.674 91.92C138.258 91.08 140.046 90.66 142.038 90.66ZM142.038 95.988C140.862 95.988 139.866 96.42 139.05 97.284C138.258 98.124 137.862 99.348 137.862 100.956C137.862 102.564 138.258 103.788 139.05 104.628C139.866 105.468 140.862 105.888 142.038 105.888C143.214 105.888 144.198 105.468 144.99 104.628C145.782 103.788 146.178 102.564 146.178 100.956C146.178 99.348 145.782 98.124 144.99 97.284C144.198 96.42 143.214 95.988 142.038 95.988ZM164.706 90.66C167.298 90.66 169.47 91.38 171.222 92.82C172.974 94.236 174.078 96.192 174.534 98.688H168.018C167.826 97.824 167.43 97.152 166.83 96.672C166.23 96.192 165.474 95.952 164.562 95.952C163.482 95.952 162.594 96.384 161.898 97.248C161.202 98.088 160.854 99.324 160.854 100.956C160.854 102.588 161.202 103.836 161.898 104.7C162.594 105.54 163.482 105.96 164.562 105.96C165.474 105.96 166.23 105.72 166.83 105.24C167.43 104.76 167.826 104.088 168.018 103.224H174.534C174.078 105.72 172.974 107.688 171.222 109.128C169.47 110.544 167.298 111.252 164.706 111.252C162.738 111.252 160.986 110.844 159.45 110.028C157.938 109.188 156.75 107.988 155.886 106.428C155.022 104.868 154.59 103.044 154.59 100.956C154.59 98.844 155.01 97.02 155.85 95.484C156.714 93.924 157.914 92.736 159.45 91.92C160.986 91.08 162.738 90.66 164.706 90.66ZM183.903 94.692C184.671 93.468 185.655 92.496 186.855 91.776C188.079 91.056 189.399 90.696 190.815 90.696V97.284H189.051C187.419 97.284 186.147 97.632 185.235 98.328C184.347 99.024 183.903 100.2 183.903 101.856V111H177.747V90.912H183.903V94.692ZM212.472 100.416C212.472 100.92 212.412 101.472 212.292 102.072H198.36C198.432 103.584 198.816 104.676 199.512 105.348C200.208 105.996 201.096 106.32 202.176 106.32C203.088 106.32 203.844 106.092 204.444 105.636C205.044 105.18 205.44 104.592 205.632 103.872H212.148C211.884 105.288 211.308 106.56 210.42 107.688C209.532 108.792 208.404 109.668 207.036 110.316C205.668 110.94 204.144 111.252 202.464 111.252C200.496 111.252 198.744 110.844 197.208 110.028C195.696 109.188 194.508 107.988 193.644 106.428C192.78 104.868 192.348 103.044 192.348 100.956C192.348 98.844 192.768 97.02 193.608 95.484C194.472 93.924 195.672 92.736 197.208 91.92C198.744 91.08 200.496 90.66 202.464 90.66C204.456 90.66 206.208 91.068 207.72 91.884C209.232 92.7 210.396 93.852 211.212 95.34C212.052 96.804 212.472 98.496 212.472 100.416ZM206.244 99.48C206.268 98.16 205.908 97.176 205.164 96.528C204.444 95.856 203.544 95.52 202.464 95.52C201.336 95.52 200.4 95.856 199.656 96.528C198.912 97.2 198.492 98.184 198.396 99.48H206.244ZM223.313 90.66C224.849 90.66 226.169 91.008 227.273 91.704C228.377 92.4 229.181 93.348 229.685 94.548V84.36H235.841V111H229.685V107.364C229.181 108.564 228.377 109.512 227.273 110.208C226.169 110.904 224.849 111.252 223.313 111.252C221.657 111.252 220.169 110.844 218.849 110.028C217.553 109.188 216.521 107.988 215.753 106.428C215.009 104.868 214.637 103.044 214.637 100.956C214.637 98.844 215.009 97.02 215.753 95.484C216.521 93.924 217.553 92.736 218.849 91.92C220.169 91.08 221.657 90.66 223.313 90.66ZM225.293 96.06C223.973 96.06 222.905 96.492 222.089 97.356C221.297 98.22 220.901 99.42 220.901 100.956C220.901 102.492 221.297 103.692 222.089 104.556C222.905 105.42 223.973 105.852 225.293 105.852C226.589 105.852 227.645 105.408 228.461 104.52C229.301 103.632 229.721 102.444 229.721 100.956C229.721 99.444 229.301 98.256 228.461 97.392C227.645 96.504 226.589 96.06 225.293 96.06ZM239.503 85.26C239.503 84.324 239.839 83.556 240.511 82.956C241.183 82.332 242.071 82.02 243.175 82.02C244.279 82.02 245.167 82.332 245.839 82.956C246.511 83.556 246.847 84.324 246.847 85.26C246.847 86.172 246.511 86.94 245.839 87.564C245.167 88.164 244.279 88.464 243.175 88.464C242.071 88.464 241.183 88.164 240.511 87.564C239.839 86.94 239.503 86.172 239.503 85.26ZM246.235 90.912V111H240.079V90.912H246.235ZM261.861 105.708V111H259.089C256.737 111 254.901 110.424 253.581 109.272C252.285 108.096 251.637 106.164 251.637 103.476V96.096H248.937V90.912H251.637V85.98H257.793V90.912H261.825V96.096H257.793V103.584C257.793 104.376 257.949 104.928 258.261 105.24C258.597 105.552 259.149 105.708 259.917 105.708H261.861ZM272.953 90.66C274.489 90.66 275.809 91.008 276.913 91.704C278.017 92.4 278.833 93.348 279.361 94.548V90.912H285.481V111H279.361V107.364C278.833 108.564 278.017 109.512 276.913 110.208C275.809 110.904 274.489 111.252 272.953 111.252C271.297 111.252 269.809 110.844 268.489 110.028C267.193 109.188 266.161 107.988 265.393 106.428C264.649 104.868 264.277 103.044 264.277 100.956C264.277 98.844 264.649 97.02 265.393 95.484C266.161 93.924 267.193 92.736 268.489 91.92C269.809 91.08 271.297 90.66 272.953 90.66ZM274.933 96.06C273.613 96.06 272.545 96.492 271.729 97.356C270.937 98.22 270.541 99.42 270.541 100.956C270.541 102.492 270.937 103.692 271.729 104.556C272.545 105.42 273.613 105.852 274.933 105.852C276.229 105.852 277.285 105.408 278.101 104.52C278.941 103.632 279.361 102.444 279.361 100.956C279.361 99.444 278.941 98.256 278.101 97.392C277.285 96.504 276.229 96.06 274.933 96.06Z" fill="#2F281E"/>
<rect x="118" y="0.5" width="53" height="52" rx="5" fill="#1B1E76"/>
<path d="M148.343 12.5H141.923C138.649 12.5172 136 15.0231 136 18.1035V18.9213C137.343 17.0766 139.55 15.9804 141.923 15.9804H148.343C153.2 15.9804 157.321 19.4434 157.56 23.707C157.688 25.9693 156.842 28.1273 155.205 29.763C153.696 31.2596 151.747 32.1471 149.594 32.3038C148.527 33.6263 147.939 35.21 147.939 36.8459V37.072C148.049 36.4458 148.527 35.9584 149.153 35.7842C152.482 35.7319 155.573 34.4616 157.872 32.1645C160.227 29.8326 161.404 26.7525 161.239 23.5328C160.889 17.4594 155.113 12.5 148.343 12.5Z" fill="white"/>
<path d="M149.637 32.3996C148.567 33.7219 147.976 35.3054 147.976 36.9411V37.1672C147.958 37.2717 147.958 37.4109 147.958 37.5327C147.958 40.7342 145.264 43.2747 141.979 43.2747C138.676 43.2747 136 40.7342 136 37.637V19.019C137.347 17.1745 139.562 16.0785 141.942 16.0785C140.706 16.096 139.691 17.0352 139.691 18.2013V37.637C139.691 38.8203 140.706 39.7945 141.979 39.7945C143.234 39.7945 144.267 38.8203 144.267 37.637C144.12 35.2011 146.002 32.9216 148.641 32.4343L148.991 32.4168C149.213 32.4168 149.434 32.4168 149.637 32.3996Z" fill="#DBDBDB"/>
<path d="M149.637 32.3008C149.205 33.4153 149.048 34.5995 149.166 35.7835C148.498 35.9578 147.987 36.4455 147.869 37.072V36.8458C147.869 35.2088 148.498 33.6241 149.637 32.3008Z" fill="#7C7C7C"/>
<path d="M141.808 16.0785C139.481 16.0785 137.317 17.1455 136 18.9412C137.119 18.2266 138.385 17.7389 139.716 17.5098C140.004 16.6867 140.836 16.0922 141.808 16.0785Z" fill="#7C7C7C"/>
</g>
<defs>
<clipPath id="clip0">
<rect width="288" height="122" fill="white"/>
</clipPath>
</defs>
</svg>
